<svg version="1.2" xmlns="http://www.w3.org/2000/svg" viewBox="0 0 3061 1980" width="3061" height="1980">
	<title>personal-logo-svg</title>
	<style>
		.s0 { fill: #33cc33 } 
		.s1 { fill: #231f20 } 
		.s2 { fill: #ffffff;stroke: #000000 } 
	</style>
	<g id="Layer 1">
		<g id="&lt;Group&gt;">
			<path id="&lt;Path&gt;" class="s0" d="m2758.3 1330.6v-1002.8c0-6.1-3.4-11.7-8.8-14.6-13.8-7.3-26.5-16.8-37.3-28.5-17.4-16.2-29.8-35.8-37.6-57.5-10.9-22-16-45.6-14.9-70.6l5.6-44.1 0.8-2.3c8.5-30.2 24.1-56.6 46.1-78.8l1.6-1.6c6.2-4.9 2.7-14.8-5.1-14.8h-341.1c-8.9 0-17.1 5.1-21 13.2l-229.4 471.2c-2.4 4.9-3.6 10.2-3.6 15.6v118.4c0 109.4-33.8 224.7-95.2 323.5-26.9 42.8-58.4 81.8-93.3 115.7-7.1 6.9-7.1 18.2-0.1 25.1 34.9 34.1 66.5 73.3 93.4 116.3 33.8 54.5 59.2 113.8 75.4 174.4 2.4 8.7 14.2 9.9 18.1 1.8l304.5-631c2.8-5.9 11.7-3.8 11.7 2.7v568.7c0 9.2 7.4 16.7 16.6 16.7h296.9c9.2 0 16.7-7.5 16.7-16.7z"/>
			<path id="&lt;Path&gt;" class="s1" d="m1663.8 1074.4c-8.5 4.4-8.6 16.6-0.1 21 73.4 38.3 136.4 99.7 181.8 173.6 50.7 80.3 79.9 175.7 79.9 268.6 0 26.9-2.1 53.1-7.2 79.6-37.2 199.2-212.9 350.4-423.3 350.4h-1446.7c-12.2 0-20.1-12.9-14.7-23.8l303.7-607.5c4.2-8.3 12.1-14.2 21.3-15.9l0.1-0.1 539.9-78.4c46.6-6.8 64.9-63.4 31.1-96.2l-390.8-381.2c-12.5-12-18.4-29.8-16.3-47.9q0-1 0.2-2l22.8-132.3 69.9-405.8q0.5-2.7 0.7-5.4l23.1-135c2.1-12 12.5-20.8 24.7-20.8h831c237.3 0 430.5 192.6 430.5 430v188.4c0 36.3-4.8 73.5-13.4 109.8-33.4 139.4-126.3 267.9-248.2 330.9z"/>
			<path id="&lt;Path&gt;" class="s1" d="m3029.6 155.1c0.5-12.7-2.2-24.4-7.8-35.1l-1.6-2.8-0.8-3.1c-4.1-11.8-10.5-21.9-20.1-30.6l-1.6-1.9c-8.9-9.5-18.8-15.8-30.9-19.8l-2.9-0.8-2.4-1.5c-11.5-5.9-23.4-8.5-36.8-8.2h-1.3c-18.8 0.2-35.9 4.5-51.7 13.7l-24.9 19.2c-1.7 1.5-3 2.7-4.1 4.3-10.2 11.4-17.1 24.2-21.4 39l-4.6 33.4c-0.2 12.6 2.4 24.3 8.3 35.2l1.4 2.6 0.8 2.9c3.5 10 8.3 18.8 15.5 26.1 1.4 1.6 2.7 3.1 4.3 4.6l1.9 1.9c8.6 9.5 18.7 15.6 30.5 19.8l3 0.8 2.7 1.6c11.5 5.9 23.6 8.5 36.7 8.1h1.6c18.5 0 35.7-4.7 51.8-13.6l24.9-19.2c11.8-12.7 20.1-26.8 25.4-43.4z"/>
		</g>
		<path id="&lt;Path&gt;" class="s2" d="m550.6 582.3l-23.1 134.3q0.1-1 0.2-2z"/>
	</g>
</svg>